<svg xmlns="http://www.w3.org/2000/svg" xmlns:xlink="http://www.w3.org/1999/xlink" width="500" zoomAndPan="magnify" viewBox="0 0 375 374.999991" height="500" preserveAspectRatio="xMidYMid meet" version="1.0"><defs><g/><clipPath id="4307293394"><path d="M 84 118 L 329 118 L 329 265 L 84 265 Z M 84 118 " clip-rule="nonzero"/></clipPath><clipPath id="909d7c8920"><path d="M 57.238281 197.554688 L 293.917969 70.765625 L 356.25 187.121094 L 119.574219 313.910156 Z M 57.238281 197.554688 " clip-rule="nonzero"/></clipPath><clipPath id="58da3a576e"><path d="M 57.238281 197.554688 L 293.917969 70.765625 L 356.25 187.121094 L 119.574219 313.910156 Z M 57.238281 197.554688 " clip-rule="nonzero"/></clipPath><clipPath id="f8159b70fc"><path d="M 70 93 L 145 93 L 145 169 L 70 169 Z M 70 93 " clip-rule="nonzero"/></clipPath><clipPath id="d08bc8162a"><path d="M 76.25 87.335938 L 150.96875 99.78125 L 138.523438 174.503906 L 63.804688 162.058594 Z M 76.25 87.335938 " clip-rule="nonzero"/></clipPath><clipPath id="ff9910d2eb"><path d="M 76.25 87.335938 L 150.96875 99.78125 L 138.523438 174.503906 L 63.804688 162.058594 Z M 76.25 87.335938 " clip-rule="nonzero"/></clipPath><clipPath id="c2bbe604fc"><path d="M 26 133 L 122 133 L 122 228 L 26 228 Z M 26 133 " clip-rule="nonzero"/></clipPath><clipPath id="93074a3bdb"><path d="M 34.515625 125.324219 L 129.210938 141.101562 L 113.4375 235.796875 L 18.742188 220.019531 Z M 34.515625 125.324219 " clip-rule="nonzero"/></clipPath><clipPath id="93a371a778"><path d="M 34.515625 125.324219 L 129.210938 141.101562 L 113.4375 235.796875 L 18.742188 220.019531 Z M 34.515625 125.324219 " clip-rule="nonzero"/></clipPath></defs><g clip-path="url(#4307293394)"><g clip-path="url(#909d7c8920)"><g clip-path="url(#58da3a576e)"><path fill="#171616" d="M 193.34375 138.984375 C 194.808594 134.59375 194.695312 129.699219 192.722656 125.222656 L 192.804688 125.160156 C 195.84375 129.933594 200.710938 132.898438 205.96875 133.648438 C 228.757812 124.679688 250.023438 119.84375 266.992188 119.488281 C 250.253906 122.324219 231.007812 128.375 211.074219 137.414062 C 207.40625 142.734375 206.5625 149.761719 209.296875 155.949219 L 209.207031 156 C 205.191406 149.6875 197.898438 146.515625 190.800781 147.519531 L 190.578125 147.640625 C 131.050781 180.148438 93.023438 225.605469 105.640625 249.160156 C 110.851562 258.882812 123.867188 263.347656 141.527344 262.984375 C 114.675781 267.539062 94.183594 263.839844 87.3125 251.015625 C 66.644531 212.433594 162.164062 153.027344 193.34375 138.984375 Z M 204.660156 228.859375 L 204.75 228.808594 C 207.835938 233.636719 212.808594 236.621094 218.160156 237.320312 C 241.929688 224.742188 326.058594 169.492188 306.910156 133.742188 C 301.707031 124.03125 288.683594 119.554688 271.027344 119.929688 C 297.882812 115.378906 318.351562 119.070312 325.230469 131.910156 C 345.699219 170.117188 251.769531 228.863281 222.027344 242.636719 C 219.222656 247.726562 218.78125 253.996094 221.242188 259.601562 L 221.152344 259.648438 C 216.554688 252.433594 207.738281 249.328125 199.753906 251.847656 C 182.667969 257.996094 163.75 263.035156 145.5625 263.425781 C 163.222656 260.429688 183.652344 253.859375 204.773438 243.972656 C 206.761719 239.261719 206.84375 233.800781 204.660156 228.859375 " fill-opacity="1" fill-rule="evenodd"/></g></g></g><g clip-path="url(#f8159b70fc)"><g clip-path="url(#d08bc8162a)"><g clip-path="url(#ff9910d2eb)"><path fill="#ffde17" d="M 111.113281 113.644531 C 111.050781 114.703125 111.082031 115.761719 111.203125 116.816406 C 111.320312 117.875 111.527344 118.910156 111.824219 119.933594 C 112.121094 120.953125 112.5 121.941406 112.964844 122.898438 C 113.425781 123.851562 113.96875 124.761719 114.585938 125.628906 C 115.203125 126.492188 115.886719 127.300781 116.640625 128.046875 C 117.398438 128.796875 118.207031 129.476562 119.078125 130.085938 C 119.949219 130.695312 120.863281 131.230469 121.824219 131.683594 C 122.78125 132.140625 123.773438 132.511719 124.796875 132.796875 C 129.746094 134.191406 136.191406 135.628906 144.589844 137.03125 C 136.191406 135.628906 129.625 134.902344 124.492188 134.617188 C 123.433594 134.558594 122.375 134.585938 121.320312 134.707031 C 120.261719 134.824219 119.226562 135.035156 118.203125 135.328125 C 117.183594 135.625 116.195312 136.003906 115.238281 136.46875 C 114.285156 136.929688 113.375 137.472656 112.507812 138.089844 C 111.644531 138.707031 110.835938 139.394531 110.089844 140.148438 C 109.339844 140.902344 108.660156 141.714844 108.050781 142.582031 C 107.441406 143.453125 106.90625 144.367188 106.453125 145.328125 C 105.996094 146.289062 105.625 147.277344 105.339844 148.300781 C 103.945312 153.25 102.507812 159.695312 101.105469 168.097656 C 102.507812 159.695312 103.234375 153.128906 103.519531 148 C 103.578125 146.9375 103.550781 145.878906 103.429688 144.824219 C 103.3125 143.769531 103.101562 142.730469 102.808594 141.710938 C 102.511719 140.6875 102.132812 139.699219 101.667969 138.746094 C 101.207031 137.789062 100.664062 136.878906 100.046875 136.011719 C 99.429688 135.148438 98.742188 134.34375 97.988281 133.59375 C 97.234375 132.847656 96.421875 132.167969 95.554688 131.554688 C 94.683594 130.945312 93.769531 130.414062 92.808594 129.957031 C 91.847656 129.503906 90.859375 129.128906 89.835938 128.84375 C 84.886719 127.453125 78.441406 126.011719 70.039062 124.613281 C 78.441406 126.011719 85.003906 126.738281 90.136719 127.023438 C 91.199219 127.085938 92.257812 127.054688 93.3125 126.933594 C 94.367188 126.816406 95.40625 126.609375 96.425781 126.3125 C 97.449219 126.015625 98.4375 125.636719 99.390625 125.171875 C 100.347656 124.710938 101.257812 124.167969 102.125 123.550781 C 102.988281 122.933594 103.792969 122.25 104.542969 121.496094 C 105.289062 120.738281 105.96875 119.929688 106.582031 119.058594 C 107.191406 118.1875 107.722656 117.273438 108.179688 116.3125 C 108.636719 115.355469 109.007812 114.363281 109.292969 113.339844 C 110.683594 108.390625 112.125 101.945312 113.523438 93.546875 C 112.125 101.945312 111.398438 108.511719 111.113281 113.644531 Z M 111.113281 113.644531 " fill-opacity="1" fill-rule="nonzero"/></g></g></g><g clip-path="url(#c2bbe604fc)"><g clip-path="url(#93074a3bdb)"><g clip-path="url(#93a371a778)"><path fill="#ffde17" d="M 78.78125 158.726562 C 78.703125 160.074219 78.742188 161.417969 78.894531 162.757812 C 79.046875 164.097656 79.308594 165.414062 79.683594 166.710938 C 80.058594 168.007812 80.542969 169.261719 81.128906 170.476562 C 81.71875 171.691406 82.402344 172.84375 83.1875 173.941406 C 83.972656 175.039062 84.84375 176.066406 85.800781 177.015625 C 86.757812 177.964844 87.789062 178.828125 88.894531 179.601562 C 89.996094 180.378906 91.160156 181.054688 92.378906 181.632812 C 93.597656 182.210938 94.855469 182.683594 96.15625 183.046875 C 102.4375 184.8125 110.621094 186.644531 121.285156 188.417969 C 110.621094 186.644531 102.285156 185.71875 95.769531 185.355469 C 94.421875 185.28125 93.078125 185.316406 91.738281 185.46875 C 90.398438 185.621094 89.082031 185.886719 87.785156 186.261719 C 86.488281 186.636719 85.234375 187.117188 84.019531 187.707031 C 82.804688 188.292969 81.648438 188.980469 80.550781 189.765625 C 79.453125 190.546875 78.429688 191.417969 77.480469 192.378906 C 76.53125 193.335938 75.667969 194.367188 74.894531 195.46875 C 74.117188 196.574219 73.441406 197.734375 72.863281 198.953125 C 72.285156 200.171875 71.8125 201.433594 71.449219 202.730469 C 69.683594 209.011719 67.851562 217.199219 66.078125 227.863281 C 67.851562 217.199219 68.777344 208.863281 69.140625 202.347656 C 69.214844 201 69.179688 199.65625 69.027344 198.316406 C 68.875 196.976562 68.609375 195.65625 68.234375 194.359375 C 67.859375 193.066406 67.378906 191.8125 66.789062 190.597656 C 66.203125 189.382812 65.515625 188.226562 64.730469 187.128906 C 63.949219 186.03125 63.078125 185.007812 62.117188 184.058594 C 61.160156 183.109375 60.128906 182.246094 59.027344 181.46875 C 57.921875 180.695312 56.761719 180.019531 55.542969 179.441406 C 54.324219 178.863281 53.0625 178.390625 51.765625 178.027344 C 45.484375 176.257812 37.296875 174.429688 26.632812 172.652344 C 37.296875 174.429688 45.632812 175.351562 52.148438 175.71875 C 53.496094 175.792969 54.839844 175.753906 56.179688 175.601562 C 57.519531 175.449219 58.839844 175.1875 60.136719 174.8125 C 61.429688 174.4375 62.683594 173.953125 63.898438 173.367188 C 65.113281 172.777344 66.269531 172.09375 67.367188 171.308594 C 68.464844 170.523438 69.488281 169.652344 70.4375 168.695312 C 71.386719 167.738281 72.25 166.707031 73.027344 165.601562 C 73.800781 164.496094 74.476562 163.335938 75.054688 162.117188 C 75.632812 160.898438 76.105469 159.640625 76.46875 158.339844 C 78.238281 152.058594 80.066406 143.875 81.84375 133.210938 C 80.066406 143.875 79.144531 152.210938 78.78125 158.726562 Z M 78.78125 158.726562 " fill-opacity="1" fill-rule="nonzero"/></g></g></g><path stroke-linecap="butt" transform="matrix(0.75, 0, 0, 0.75, 87.456781, 150.760728)" fill="none" stroke-linejoin="miter" d="M 76.765963 51.001325 L 54.55242 51.001325 L 72.83888 -1.89972 L 93.542006 -1.89972 L 89.760756 27.714865 L 90.901381 27.714865 L 102.989924 -1.89972 L 123.69305 -1.89972 L 113.578466 51.001325 L 91.344089 51.001325 L 103.818049 18.506531 L 102.765965 18.360698 L 89.536798 44.266949 L 82.213881 44.266949 L 82.896172 18.360698 L 81.750339 18.506531 Z M 139.187843 52.126325 C 133.896176 52.126325 129.828467 50.996116 126.989925 48.730491 C 124.135758 46.464866 122.708675 43.292991 122.708675 39.209657 C 122.708675 35.938824 123.38055 32.69924 124.719092 29.501323 C 126.047217 26.303406 127.922217 23.381531 130.3493 20.740906 C 132.771176 18.095073 135.640967 15.990906 138.963884 14.428406 C 142.286801 12.865906 145.937843 12.084656 149.927427 12.084656 C 155.265969 12.084656 159.364927 13.214864 162.234719 15.480489 C 165.109719 17.740906 166.552428 20.944031 166.552428 25.07424 C 166.552428 28.345073 165.880553 31.589865 164.536803 34.798199 C 163.208678 37.996116 161.333677 40.907574 158.911802 43.527366 C 156.500344 46.136741 153.614927 48.220075 150.255552 49.782575 C 146.911801 51.345075 143.219093 52.126325 139.187843 52.126325 Z M 148.265968 35.88674 C 150.526385 35.88674 151.661802 35.23049 151.661802 33.912782 C 151.661802 33.308615 151.302427 32.673199 150.588885 31.996115 C 149.88576 31.319032 148.995135 30.704448 147.911802 30.147157 C 146.833676 29.584657 145.687843 29.126323 144.47951 28.782573 C 143.276385 28.428407 142.167009 28.246115 141.161801 28.246115 C 138.833676 28.246115 137.672217 28.933615 137.672217 30.298198 C 137.672217 30.897157 138.021176 31.516948 138.724301 32.141949 C 139.437843 32.766949 140.359718 33.371115 141.489926 33.94924 C 142.625343 34.527365 143.79201 34.996115 145.000343 35.350282 C 146.213885 35.709657 147.302426 35.88674 148.265968 35.88674 Z M 181.739929 52.126325 C 180.177429 52.126325 178.32847 52.01695 176.187845 51.792991 C 174.04722 51.574241 171.932636 51.256533 169.838886 50.850283 C 167.750344 50.444033 166.021178 50.042991 164.651386 49.636741 L 169.26597 32.32424 C 170.729511 33.188824 172.380553 33.91799 174.213887 34.522157 C 176.057637 35.126324 177.885762 35.579449 179.693054 35.88674 C 181.510762 36.183615 183.130554 36.329449 184.547221 36.329449 C 186.708679 36.329449 188.406596 36.23049 189.635763 36.037782 C 190.870138 35.839865 191.484721 35.381532 191.484721 34.66799 C 191.484721 34.214865 191.005554 33.902365 190.042013 33.73049 C 189.099304 33.558615 187.854512 33.423199 186.318054 33.32424 C 184.781596 33.209657 183.151387 33.058615 181.427429 32.860699 C 179.719095 32.662782 178.094095 32.32424 176.557637 31.845073 C 175.031595 31.365907 173.786803 30.621115 172.82847 29.615907 C 171.870136 28.60549 171.39097 27.272157 171.39097 25.610698 C 171.39097 23.334656 172.021178 21.355489 173.292012 19.667989 C 174.542012 17.980489 176.239928 16.574239 178.380554 15.444031 C 180.521179 14.308614 182.937845 13.470072 185.635762 12.912781 C 188.328471 12.360697 191.088888 12.084656 193.917013 12.084656 C 196.42743 12.084656 198.89618 12.277364 201.318055 12.657572 C 203.73993 13.027364 206.062847 13.615906 208.276389 14.428406 L 204.198264 30.225282 C 202.979513 29.360698 201.23993 28.579448 198.974305 27.881532 C 196.713888 27.16799 194.213888 26.808615 191.484721 26.808615 C 189.677429 26.808615 188.193054 26.88674 187.036804 27.048198 C 185.880554 27.19924 185.302429 27.621115 185.302429 28.32424 C 185.302429 28.678407 185.776387 28.94924 186.724304 29.13674 C 187.682637 29.308615 188.917013 29.454448 190.432638 29.579448 C 191.943054 29.69924 193.557638 29.902365 195.265971 30.183615 C 196.98993 30.454448 198.599305 30.871115 200.099305 31.423198 C 201.61493 31.975282 202.849305 32.766949 203.807639 33.803407 C 204.77118 34.834657 205.250347 36.183615 205.250347 37.845074 C 205.250347 40.220074 204.578472 42.303408 203.23993 44.100283 C 201.906597 45.881533 200.120138 47.365908 197.870138 48.5482 C 195.630555 49.725283 193.114929 50.621116 190.323263 51.220075 C 187.526387 51.824241 184.667012 52.126325 181.739929 52.126325 Z M 223.005556 52.126325 C 221.443056 52.126325 219.594098 52.01695 217.453473 51.792991 C 215.312848 51.574241 213.198264 51.256533 211.104514 50.850283 C 209.015972 50.444033 207.286805 50.042991 205.922222 49.636741 L 210.531597 32.32424 C 211.995139 33.188824 213.646181 33.91799 215.479514 34.522157 C 217.323264 35.126324 219.15139 35.579449 220.958681 35.88674 C 222.781598 36.183615 224.396182 36.329449 225.812848 36.329449 C 227.974307 36.329449 229.672224 36.23049 230.906599 36.037782 C 232.135765 35.839865 232.750349 35.381532 232.750349 34.66799 C 232.750349 34.214865 232.271182 33.902365 231.30764 33.73049 C 230.364932 33.558615 229.12014 33.423199 227.583682 33.32424 C 226.047223 33.209657 224.417015 33.058615 222.693056 32.860699 C 220.984723 32.662782 219.359723 32.32424 217.823264 31.845073 C 216.297223 31.365907 215.052431 30.621115 214.094098 29.615907 C 213.135764 28.60549 212.656597 27.272157 212.656597 25.610698 C 212.656597 23.334656 213.286806 21.355489 214.557639 19.667989 C 215.812848 17.980489 217.505556 16.574239 219.646181 15.444031 C 221.786806 14.308614 224.203473 13.470072 226.90139 12.912781 C 229.594099 12.360697 232.354515 12.084656 235.182641 12.084656 C 237.693057 12.084656 240.161808 12.277364 242.583683 12.657572 C 245.005558 13.027364 247.328475 13.615906 249.542017 14.428406 L 245.463891 30.225282 C 244.245141 29.360698 242.505558 28.579448 240.239933 27.881532 C 237.979516 27.16799 235.479516 26.808615 232.750349 26.808615 C 230.943057 26.808615 229.458682 26.88674 228.302432 27.048198 C 227.146182 27.19924 226.568057 27.621115 226.568057 28.32424 C 226.568057 28.678407 227.042015 28.94924 227.989932 29.13674 C 228.948265 29.308615 230.18264 29.454448 231.698265 29.579448 C 233.208682 29.69924 234.823266 29.902365 236.531599 30.183615 C 238.255557 30.454448 239.864933 30.871115 241.364933 31.423198 C 242.880558 31.975282 244.114933 32.766949 245.073266 33.803407 C 246.036808 34.834657 246.515975 36.183615 246.515975 37.845074 C 246.515975 40.220074 245.8441 42.303408 244.505558 44.100283 C 243.172224 45.881533 241.385766 47.365908 239.135766 48.5482 C 236.896182 49.725283 234.380557 50.621116 231.58889 51.220075 C 228.792015 51.824241 225.93264 52.126325 223.005556 52.126325 Z M 223.005556 52.126325 " stroke="#000000" stroke-width="16.818151" stroke-opacity="1" stroke-miterlimit="4"/><path stroke-linecap="butt" transform="matrix(0.75, 0, 0, 0.75, 87.456781, 150.760728)" fill="none" stroke-linejoin="miter" d="M 95.349298 108.126329 C 90.724298 108.126329 86.984714 106.766953 84.130547 104.048203 C 81.292005 101.329453 79.87013 97.298203 79.87013 91.959661 C 79.87013 87.016952 80.739922 82.220077 82.474297 77.569035 C 84.208672 72.907576 86.724297 68.725284 90.021173 65.022159 C 93.328465 61.319034 97.31284 58.386742 101.974298 56.220075 C 106.635757 54.042992 111.890966 52.95445 117.734716 52.95445 C 120.906591 52.95445 123.989925 53.121117 126.979508 53.45445 C 129.979509 53.782575 132.646176 54.225283 134.969092 54.782575 L 127.401383 75.850285 C 125.484717 75.298201 123.338883 74.860701 120.963883 74.542993 C 118.5993 74.20966 115.890966 74.042993 112.828466 74.042993 C 108.385757 74.042993 104.78159 74.761743 102.010757 76.204451 C 99.245132 77.641951 97.859715 79.64716 97.859715 82.220077 C 97.859715 83.766952 98.62534 84.949244 100.151382 85.761744 C 101.68784 86.574244 103.84409 86.980494 106.62534 86.980494 C 108.792007 86.980494 110.599299 86.688827 112.052424 86.110702 C 113.515966 85.52216 114.401383 84.751327 114.708674 83.80341 L 103.06284 83.714869 L 105.036799 76.610701 L 137.239926 76.610701 L 135.114926 84.324244 L 131.333675 84.324244 L 126.0368 107.001328 L 110.167007 107.001328 L 119.00555 87.05341 L 117.807633 87.05341 C 115.542008 92.589869 113.260758 96.881536 110.963882 99.93362 C 108.672216 102.985703 106.271174 105.110703 103.745132 106.319037 C 101.224298 107.522162 98.427423 108.126329 95.349298 108.126329 Z M 151.208677 95.136744 L 149.177427 107.001328 L 133.140967 107.001328 L 143.271176 69.209659 L 159.453469 69.209659 L 154.083677 83.641952 L 155.13576 83.641952 C 156.099302 80.824243 157.380552 78.246118 158.995136 75.907576 C 160.604511 73.558618 162.443052 71.667993 164.510761 70.240909 C 166.578469 68.803409 168.76597 68.084659 171.07847 68.084659 C 173.812845 68.084659 175.682637 68.865909 176.687845 70.428409 L 169.95347 91.058619 C 169.54722 89.740911 168.677428 88.553411 167.333678 87.496119 C 166.005553 86.438827 164.484719 85.907577 162.776386 85.907577 C 159.552427 85.907577 156.922219 86.819035 154.880552 88.641952 C 152.838885 90.449244 151.614927 92.615911 151.208677 95.136744 Z M 193.609721 67.329451 C 190.536804 67.329451 188.396179 66.610701 187.187846 65.167992 C 185.984721 63.730492 185.656596 61.928409 186.213887 59.761742 C 186.812846 57.5482 188.094096 55.751325 190.047221 54.376325 C 192.015971 52.9857 194.542013 52.287783 197.61493 52.287783 C 200.73993 52.287783 202.890972 52.9857 204.073264 54.376325 C 205.265972 55.751325 205.578472 57.5482 205.015972 59.761742 C 204.411805 61.928409 203.135763 63.730492 201.193055 65.167992 C 199.260763 66.610701 196.734721 67.329451 193.609721 67.329451 Z M 192.245138 107.001328 L 177.057637 107.001328 L 182.500345 86.589869 L 176.005553 86.589869 L 180.693054 69.209659 L 202.375347 69.209659 Z M 211.140972 108.126329 C 207.969097 108.126329 205.42743 107.069037 203.52118 104.949245 C 201.599305 102.834661 200.640972 99.99612 200.640972 96.428411 C 200.640972 93.954453 200.969097 91.407577 201.620138 88.787786 C 202.27118 86.167994 203.203472 83.621119 204.422222 81.14716 C 205.630555 78.67841 207.062847 76.45966 208.724305 74.506535 C 210.385764 72.537784 212.224306 70.975284 214.239931 69.819034 C 216.255556 68.662784 218.396181 68.084659 220.661806 68.084659 C 223.281598 68.084659 225.411807 68.792993 227.047223 70.204451 C 228.693057 71.610701 229.818057 73.496118 230.422224 75.871118 C 231.02639 78.235702 231.073265 80.845077 230.568057 83.714869 L 231.547224 83.714869 L 236.234724 54.100283 L 254.005558 54.100283 L 239.797224 107.001328 L 223.172223 107.001328 L 228.687848 94.157578 L 227.693057 94.157578 C 225.833682 98.68362 223.453473 102.147161 220.552431 104.548203 C 217.661806 106.93362 214.521181 108.126329 211.140972 108.126329 Z M 226.344098 92.183619 C 228.302432 92.183619 229.27639 91.376327 229.27639 89.766952 C 229.27639 88.964869 228.724307 88.167994 227.62014 87.36591 C 226.510765 86.55341 225.203473 85.871119 223.687848 85.319035 C 222.177431 84.751327 220.818056 84.470077 219.609723 84.470077 C 218.698264 84.470077 217.969098 84.662785 217.411806 85.042994 C 216.859723 85.423202 216.583681 85.99091 216.583681 86.74091 C 216.583681 87.600285 217.151389 88.449244 218.281598 89.287786 C 219.411806 90.110702 220.750348 90.798202 222.286806 91.350286 C 223.823265 91.907577 225.177432 92.183619 226.344098 92.183619 Z M 226.344098 92.183619 " stroke="#000000" stroke-width="16.818151" stroke-opacity="1" stroke-miterlimit="4"/><g fill="#ffffff" fill-opacity="1"><g transform="translate(134.542716, 189.010725)"><g><path d="M 10.484375 0 L -6.171875 0 L 7.546875 -39.6875 L 23.078125 -39.6875 L 20.234375 -17.453125 L 21.09375 -17.453125 L 30.15625 -39.6875 L 45.6875 -39.6875 L 38.09375 0 L 21.421875 0 L 30.78125 -24.375 L 29.984375 -24.484375 L 20.0625 -5.046875 L 14.5625 -5.046875 L 15.078125 -24.484375 L 14.234375 -24.375 Z M 10.484375 0 "/></g></g></g><g fill="#ffffff" fill-opacity="1"><g transform="translate(183.404235, 189.010725)"><g><path d="M 8.453125 0.84375 C 4.484375 0.84375 1.429688 -0.00390625 -0.703125 -1.703125 C -2.835938 -3.398438 -3.90625 -5.78125 -3.90625 -8.84375 C -3.90625 -11.300781 -3.40625 -13.726562 -2.40625 -16.125 C -1.40625 -18.53125 0 -20.722656 1.8125 -22.703125 C 3.625 -24.679688 5.773438 -26.253906 8.265625 -27.421875 C 10.765625 -28.597656 13.507812 -29.1875 16.5 -29.1875 C 20.5 -29.1875 23.578125 -28.335938 25.734375 -26.640625 C 27.890625 -24.941406 28.96875 -22.539062 28.96875 -19.4375 C 28.96875 -16.988281 28.46875 -14.5625 27.46875 -12.15625 C 26.46875 -9.757812 25.054688 -7.578125 23.234375 -5.609375 C 21.421875 -3.648438 19.257812 -2.082031 16.75 -0.90625 C 14.238281 0.257812 11.472656 0.84375 8.453125 0.84375 Z M 15.25 -11.34375 C 16.945312 -11.34375 17.796875 -11.832031 17.796875 -12.8125 C 17.796875 -13.257812 17.53125 -13.738281 17 -14.25 C 16.476562 -14.757812 15.8125 -15.222656 15 -15.640625 C 14.1875 -16.054688 13.320312 -16.394531 12.40625 -16.65625 C 11.5 -16.925781 10.671875 -17.0625 9.921875 -17.0625 C 8.179688 -17.0625 7.3125 -16.550781 7.3125 -15.53125 C 7.3125 -15.082031 7.578125 -14.617188 8.109375 -14.140625 C 8.640625 -13.671875 9.328125 -13.21875 10.171875 -12.78125 C 11.023438 -12.34375 11.90625 -11.992188 12.8125 -11.734375 C 13.71875 -11.472656 14.53125 -11.34375 15.25 -11.34375 Z M 15.25 -11.34375 "/></g></g></g><g fill="#ffffff" fill-opacity="1"><g transform="translate(217.811421, 189.010725)"><g><path d="M 5.953125 0.84375 C 4.773438 0.84375 3.382812 0.757812 1.78125 0.59375 C 0.175781 0.425781 -1.40625 0.191406 -2.96875 -0.109375 C -4.539062 -0.410156 -5.835938 -0.710938 -6.859375 -1.015625 L -3.40625 -14 C -2.300781 -13.351562 -1.0625 -12.800781 0.3125 -12.34375 C 1.6875 -11.894531 3.054688 -11.554688 4.421875 -11.328125 C 5.785156 -11.109375 6.992188 -11 8.046875 -11 C 9.671875 -11 10.945312 -11.070312 11.875 -11.21875 C 12.800781 -11.375 13.265625 -11.71875 13.265625 -12.25 C 13.265625 -12.582031 12.90625 -12.816406 12.1875 -12.953125 C 11.46875 -13.085938 10.53125 -13.191406 9.375 -13.265625 C 8.226562 -13.335938 7.007812 -13.445312 5.71875 -13.59375 C 4.4375 -13.75 3.21875 -14.003906 2.0625 -14.359375 C 0.914062 -14.722656 -0.015625 -15.28125 -0.734375 -16.03125 C -1.453125 -16.789062 -1.8125 -17.796875 -1.8125 -19.046875 C -1.8125 -20.742188 -1.335938 -22.222656 -0.390625 -23.484375 C 0.546875 -24.753906 1.816406 -25.816406 3.421875 -26.671875 C 5.035156 -27.523438 6.851562 -28.15625 8.875 -28.5625 C 10.894531 -28.976562 12.960938 -29.1875 15.078125 -29.1875 C 16.960938 -29.1875 18.8125 -29.046875 20.625 -28.765625 C 22.445312 -28.484375 24.1875 -28.039062 25.84375 -27.4375 L 22.78125 -15.59375 C 21.875 -16.226562 20.570312 -16.8125 18.875 -17.34375 C 17.175781 -17.875 15.304688 -18.140625 13.265625 -18.140625 C 11.898438 -18.140625 10.78125 -18.082031 9.90625 -17.96875 C 9.039062 -17.851562 8.609375 -17.53125 8.609375 -17 C 8.609375 -16.738281 8.96875 -16.539062 9.6875 -16.40625 C 10.40625 -16.28125 11.332031 -16.164062 12.46875 -16.0625 C 13.601562 -15.96875 14.8125 -15.816406 16.09375 -15.609375 C 17.382812 -15.410156 18.59375 -15.101562 19.71875 -14.6875 C 20.851562 -14.269531 21.78125 -13.671875 22.5 -12.890625 C 23.21875 -12.117188 23.578125 -11.109375 23.578125 -9.859375 C 23.578125 -8.085938 23.078125 -6.53125 22.078125 -5.1875 C 21.078125 -3.84375 19.734375 -2.726562 18.046875 -1.84375 C 16.367188 -0.957031 14.476562 -0.289062 12.375 0.15625 C 10.28125 0.613281 8.140625 0.84375 5.953125 0.84375 Z M 5.953125 0.84375 "/></g></g></g><g fill="#ffffff" fill-opacity="1"><g transform="translate(248.760901, 189.010725)"><g><path d="M 5.953125 0.84375 C 4.773438 0.84375 3.382812 0.757812 1.78125 0.59375 C 0.175781 0.425781 -1.40625 0.191406 -2.96875 -0.109375 C -4.539062 -0.410156 -5.835938 -0.710938 -6.859375 -1.015625 L -3.40625 -14 C -2.300781 -13.351562 -1.0625 -12.800781 0.3125 -12.34375 C 1.6875 -11.894531 3.054688 -11.554688 4.421875 -11.328125 C 5.785156 -11.109375 6.992188 -11 8.046875 -11 C 9.671875 -11 10.945312 -11.070312 11.875 -11.21875 C 12.800781 -11.375 13.265625 -11.71875 13.265625 -12.25 C 13.265625 -12.582031 12.90625 -12.816406 12.1875 -12.953125 C 11.46875 -13.085938 10.53125 -13.191406 9.375 -13.265625 C 8.226562 -13.335938 7.007812 -13.445312 5.71875 -13.59375 C 4.4375 -13.75 3.21875 -14.003906 2.0625 -14.359375 C 0.914062 -14.722656 -0.015625 -15.28125 -0.734375 -16.03125 C -1.453125 -16.789062 -1.8125 -17.796875 -1.8125 -19.046875 C -1.8125 -20.742188 -1.335938 -22.222656 -0.390625 -23.484375 C 0.546875 -24.753906 1.816406 -25.816406 3.421875 -26.671875 C 5.035156 -27.523438 6.851562 -28.15625 8.875 -28.5625 C 10.894531 -28.976562 12.960938 -29.1875 15.078125 -29.1875 C 16.960938 -29.1875 18.8125 -29.046875 20.625 -28.765625 C 22.445312 -28.484375 24.1875 -28.039062 25.84375 -27.4375 L 22.78125 -15.59375 C 21.875 -16.226562 20.570312 -16.8125 18.875 -17.34375 C 17.175781 -17.875 15.304688 -18.140625 13.265625 -18.140625 C 11.898438 -18.140625 10.78125 -18.082031 9.90625 -17.96875 C 9.039062 -17.851562 8.609375 -17.53125 8.609375 -17 C 8.609375 -16.738281 8.96875 -16.539062 9.6875 -16.40625 C 10.40625 -16.28125 11.332031 -16.164062 12.46875 -16.0625 C 13.601562 -15.96875 14.8125 -15.816406 16.09375 -15.609375 C 17.382812 -15.410156 18.59375 -15.101562 19.71875 -14.6875 C 20.851562 -14.269531 21.78125 -13.671875 22.5 -12.890625 C 23.21875 -12.117188 23.578125 -11.109375 23.578125 -9.859375 C 23.578125 -8.085938 23.078125 -6.53125 22.078125 -5.1875 C 21.078125 -3.84375 19.734375 -2.726562 18.046875 -1.84375 C 16.367188 -0.957031 14.476562 -0.289062 12.375 0.15625 C 10.28125 0.613281 8.140625 0.84375 5.953125 0.84375 Z M 5.953125 0.84375 "/></g></g></g><g fill="#ffffff" fill-opacity="1"><g transform="translate(136.347403, 231.010722)"><g/></g></g><g fill="#ffffff" fill-opacity="1"><g transform="translate(149.905996, 231.010722)"><g><path d="M 9.0625 0.84375 C 5.59375 0.84375 2.789062 -0.171875 0.65625 -2.203125 C -1.476562 -4.242188 -2.546875 -7.269531 -2.546875 -11.28125 C -2.546875 -14.988281 -1.894531 -18.585938 -0.59375 -22.078125 C 0.707031 -25.578125 2.59375 -28.710938 5.0625 -31.484375 C 7.539062 -34.265625 10.53125 -36.46875 14.03125 -38.09375 C 17.53125 -39.71875 21.46875 -40.53125 25.84375 -40.53125 C 28.226562 -40.53125 30.546875 -40.40625 32.796875 -40.15625 C 35.046875 -39.914062 37.039062 -39.585938 38.78125 -39.171875 L 33.109375 -23.359375 C 31.671875 -23.773438 30.0625 -24.101562 28.28125 -24.34375 C 26.507812 -24.59375 24.472656 -24.71875 22.171875 -24.71875 C 18.835938 -24.71875 16.128906 -24.175781 14.046875 -23.09375 C 11.972656 -22.019531 10.9375 -20.519531 10.9375 -18.59375 C 10.9375 -17.425781 11.515625 -16.535156 12.671875 -15.921875 C 13.828125 -15.316406 15.441406 -15.015625 17.515625 -15.015625 C 19.140625 -15.015625 20.5 -15.234375 21.59375 -15.671875 C 22.6875 -16.109375 23.347656 -16.6875 23.578125 -17.40625 L 14.859375 -17.453125 L 16.328125 -22.78125 L 40.46875 -22.78125 L 38.890625 -17 L 36.046875 -17 L 32.078125 0 L 20.1875 0 L 26.8125 -14.96875 L 25.90625 -14.96875 C 24.207031 -10.8125 22.5 -7.585938 20.78125 -5.296875 C 19.0625 -3.015625 17.253906 -1.421875 15.359375 -0.515625 C 13.472656 0.390625 11.375 0.84375 9.0625 0.84375 Z M 9.0625 0.84375 "/></g></g></g><g fill="#ffffff" fill-opacity="1"><g transform="translate(193.665983, 231.010722)"><g><path d="M 7.203125 -8.90625 L 5.671875 0 L -6.34375 0 L 1.25 -28.34375 L 13.375 -28.34375 L 9.359375 -17.515625 L 10.140625 -17.515625 C 10.859375 -19.628906 11.820312 -21.566406 13.03125 -23.328125 C 14.25 -25.085938 15.628906 -26.503906 17.171875 -27.578125 C 18.722656 -28.648438 20.367188 -29.1875 22.109375 -29.1875 C 24.148438 -29.1875 25.546875 -28.601562 26.296875 -27.4375 L 21.265625 -11.96875 C 20.953125 -12.945312 20.296875 -13.832031 19.296875 -14.625 C 18.296875 -15.414062 17.15625 -15.8125 15.875 -15.8125 C 13.457031 -15.8125 11.484375 -15.128906 9.953125 -13.765625 C 8.421875 -12.410156 7.503906 -10.789062 7.203125 -8.90625 Z M 7.203125 -8.90625 "/></g></g></g><g fill="#ffffff" fill-opacity="1"><g transform="translate(222.631541, 231.010722)"><g><path d="M 10.03125 -29.765625 C 7.726562 -29.765625 6.125 -30.300781 5.21875 -31.375 C 4.3125 -32.445312 4.066406 -33.800781 4.484375 -35.4375 C 4.929688 -37.09375 5.890625 -38.441406 7.359375 -39.484375 C 8.835938 -40.523438 10.726562 -41.046875 13.03125 -41.046875 C 15.375 -41.046875 16.988281 -40.523438 17.875 -39.484375 C 18.769531 -38.441406 19.007812 -37.09375 18.59375 -35.4375 C 18.132812 -33.800781 17.175781 -32.445312 15.71875 -31.375 C 14.269531 -30.300781 12.375 -29.765625 10.03125 -29.765625 Z M 9.015625 0 L -2.375 0 L 1.703125 -15.3125 L -3.171875 -15.3125 L 0.34375 -28.34375 L 16.609375 -28.34375 Z M 9.015625 0 "/></g></g></g><g fill="#ffffff" fill-opacity="1"><g transform="translate(242.130922, 231.010722)"><g><path d="M 3.6875 0.84375 C 1.300781 0.84375 -0.601562 0.0507812 -2.03125 -1.53125 C -3.46875 -3.113281 -4.1875 -5.25 -4.1875 -7.9375 C -4.1875 -9.789062 -3.941406 -11.695312 -3.453125 -13.65625 C -2.960938 -15.625 -2.265625 -17.535156 -1.359375 -19.390625 C -0.453125 -21.242188 0.617188 -22.90625 1.859375 -24.375 C 3.109375 -25.851562 4.488281 -27.023438 6 -27.890625 C 7.519531 -28.753906 9.128906 -29.1875 10.828125 -29.1875 C 12.796875 -29.1875 14.390625 -28.65625 15.609375 -27.59375 C 16.835938 -26.539062 17.675781 -25.125 18.125 -23.34375 C 18.582031 -21.570312 18.625 -19.609375 18.25 -17.453125 L 18.984375 -17.453125 L 22.5 -39.6875 L 35.828125 -39.6875 L 25.171875 0 L 12.703125 0 L 16.84375 -9.640625 L 16.09375 -9.640625 C 14.695312 -6.234375 12.910156 -3.632812 10.734375 -1.84375 C 8.566406 -0.0507812 6.21875 0.84375 3.6875 0.84375 Z M 15.078125 -11.109375 C 16.554688 -11.109375 17.296875 -11.710938 17.296875 -12.921875 C 17.296875 -13.523438 16.878906 -14.128906 16.046875 -14.734375 C 15.210938 -15.335938 14.226562 -15.847656 13.09375 -16.265625 C 11.957031 -16.679688 10.9375 -16.890625 10.03125 -16.890625 C 9.351562 -16.890625 8.804688 -16.75 8.390625 -16.46875 C 7.972656 -16.1875 7.765625 -15.757812 7.765625 -15.1875 C 7.765625 -14.550781 8.1875 -13.921875 9.03125 -13.296875 C 9.882812 -12.671875 10.890625 -12.148438 12.046875 -11.734375 C 13.203125 -11.316406 14.210938 -11.109375 15.078125 -11.109375 Z M 15.078125 -11.109375 "/></g></g></g></svg>